<?xml version="1.0" encoding="utf-8"?>
<!-- Generator: Adobe Illustrator 26.0.2, SVG Export Plug-In . SVG Version: 6.00 Build 0)  -->
<svg version="1.1" id="Layer_1" xmlns="http://www.w3.org/2000/svg" xmlns:xlink="http://www.w3.org/1999/xlink" x="0px" y="0px"
	 width="448px" height="512px" viewBox="0 0 448 512" enable-background="new 0 0 448 512" xml:space="preserve">
<path fill="#6C1838" d="M268,416h24c6.627,0,12-5.373,12-12V188c0-6.627-5.373-12-12-12h-24c-6.627,0-12,5.373-12,12v216
	C256,410.627,261.373,416,268,416z M432,80h-82.41l-34-56.7C306.911,8.838,291.277-0.008,274.41,0H173.59
	c-16.86-0.001-32.484,8.844-41.16,23.3L98.41,80H16C7.163,80,0,87.163,0,96v16c0,8.837,7.163,16,16,16h16v336
	c0,26.51,21.49,48,48,48l0,0h288c26.51,0,48-21.49,48-48l0,0V128h16c8.837,0,16-7.163,16-16V96C448,87.163,440.837,80,432,80z
	 M171.84,50.91c1.088-1.811,3.048-2.916,5.16-2.91h94c2.109-0.002,4.064,1.102,5.15,2.91L293.61,80H154.39L171.84,50.91z M368,464
	H80V128h288V464z M156,416h24c6.627,0,12-5.373,12-12V188c0-6.627-5.373-12-12-12h-24c-6.627,0-12,5.373-12,12v216
	C144,410.627,149.373,416,156,416z"/>
</svg>
